HIERARCHY
ROOT Hips
{
	OFFSET -21.947001 39.810204 44.525997
	CHANNELS 6 Xposition Yposition Zposition Zrotation Xrotation Yrotation
	JOINT Chest
	{
		OFFSET -0.201599 0.334099 6.453201
		CHANNELS 6 Xposition Yposition Zposition Zrotation Xrotation Yrotation
		JOINT Chest2
		{
			OFFSET 0.000000 0.000000 3.568001
			CHANNELS 6 Xposition Yposition Zposition Zrotation Xrotation Yrotation
			JOINT Neck
			{
				OFFSET 0.000000 0.000000 8.296402
				CHANNELS 6 Xposition Yposition Zposition Zrotation Xrotation Yrotation
				JOINT Head
				{
					OFFSET 0.000000 0.000000 2.173901
					CHANNELS 6 Xposition Yposition Zposition Zrotation Xrotation Yrotation
					End Site
					{
						OFFSET 0.000000 0.000000 7.891998
					}
				}
			}
			JOINT LeftCollar
			{
				OFFSET 1.927601 0.221401 6.049000
				CHANNELS 6 Xposition Yposition Zposition Zrotation Xrotation Yrotation
				JOINT LeftShoulder
				{
					OFFSET 4.959700 0.000000 0.000000
					CHANNELS 6 Xposition Yposition Zposition Zrotation Xrotation Yrotation
					JOINT LeftElbow
					{
						OFFSET 0.000000 0.000000 -8.654202
						CHANNELS 6 Xposition Yposition Zposition Zrotation Xrotation Yrotation
						JOINT LeftWrist
						{
							OFFSET 0.000000 0.000000 -13.864101
							CHANNELS 6 Xposition Yposition Zposition Zrotation Xrotation Yrotation
							End Site
							{
								OFFSET 0.000000 0.000000 -2.173901
							}
						}
					}
				}
			}
			JOINT RightCollar
			{
				OFFSET -3.155701 -0.764999 6.687801
				CHANNELS 6 Xposition Yposition Zposition Zrotation Xrotation Yrotation
				JOINT RightShoulder
				{
					OFFSET -3.592899 0.000000 0.000000
					CHANNELS 6 Xposition Yposition Zposition Zrotation Xrotation Yrotation
					JOINT RightElbow
					{
						OFFSET 0.000000 0.000000 -10.352398
						CHANNELS 6 Xposition Yposition Zposition Zrotation Xrotation Yrotation
						JOINT RightWrist
						{
							OFFSET 0.000000 0.000000 -12.750301
							CHANNELS 6 Xposition Yposition Zposition Zrotation Xrotation Yrotation
							End Site
							{
								OFFSET 0.000000 0.000000 -2.173901
							}
						}
					}
				}
			}
		}
	}
	JOINT LeftHip
	{
		OFFSET 2.460600 -0.518101 -2.735500
		CHANNELS 6 Xposition Yposition Zposition Zrotation Xrotation Yrotation
		JOINT LeftKnee
		{
			OFFSET 0.000000 -0.000004 -17.005899
			CHANNELS 6 Xposition Yposition Zposition Zrotation Xrotation Yrotation
			JOINT LeftAnkle
			{
				OFFSET 0.000000 0.000000 -19.194401
				CHANNELS 6 Xposition Yposition Zposition Zrotation Xrotation Yrotation
				End Site
				{
					OFFSET 0.000000 -8.134600 0.000000
				}
			}
		}
	}
	JOINT RightHip
	{
		OFFSET -3.115499 -0.679600 -2.320301
		CHANNELS 6 Xposition Yposition Zposition Zrotation Xrotation Yrotation
		JOINT RightKnee
		{
			OFFSET 0.000000 -0.000004 -17.680401
			CHANNELS 6 Xposition Yposition Zposition Zrotation Xrotation Yrotation
			JOINT RightAnkle
			{
				OFFSET 0.000000 0.000000 -16.993797
				CHANNELS 6 Xposition Yposition Zposition Zrotation Xrotation Yrotation
				End Site
				{
					OFFSET 0.000000 -8.842300 0.000000
				}
			}
		}
	}
}
MOTION
Frames: 7
Frame Time: 0.041667
42.674400 22.584507 43.825695 2526.469489 2.451947 4.934533 -0.201606 0.334091 6.453194 -8.195196 3.475762 19.250958 -0.000004 0.000003 3.567989 -2.572088 -3.938612 -1.049856 0.000000 0.000003 8.296396 233.844367 -172.776219 159.663363 -0.000002 0.000007 2.173902 -0.741480 0.075159 5.949450 1.927598 0.221402 6.048996 -16.781899 0.816139 1.975201 4.959696 -0.000001 -0.000002 196.096056 181.753287 63.912430 0.000004 -0.000000 -8.654198 111.077345 -64.804746 126.162555 0.000006 -0.000007 -13.864100 3872.302858 7.111504 -49.378521 -3.155704 -0.765004 6.687799 38.654974 9.849635 4.114552 -3.592896 0.000002 0.000005 -226.172466 166.857136 293.160790 -0.000004 -0.000007 -10.352390 -238.708555 -36.903454 -218.779019 0.000002 0.000000 -12.750299 34.418857 170.617757 -196.631488 2.460596 -0.518105 -2.735500 -921.643433 16.578884 90.251142 -0.000004 0.000005 -17.005894 696.124848 193.343818 -62.535293 0.000000 0.000004 -19.194397 202.951640 124.200296 338.906255 -3.115502 -0.679600 -2.320305 -366.675509 -4.937396 -12.211597 0.000005 0.000003 -17.680405 -861.088888 160.755483 -195.107482 0.000005 0.000008 -16.993795 1402.297068 22.903357 -367.584662
42.689400 22.568808 43.815697 2526.511891 2.555400 4.968457 -0.201601 0.334096 6.453198 -8.220168 3.306116 19.187489 0.000003 0.000003 3.567999 -2.501512 -3.929277 -1.031172 0.000001 0.000002 8.296398 233.597442 -172.869301 159.689673 0.000003 -0.000001 2.173910 -0.484588 0.093963 5.806185 1.927602 0.221403 6.048995 -17.387039 1.370377 2.381596 4.959701 0.000003 0.000011 196.528503 182.307543 63.631914 0.000002 -0.000001 -8.654211 111.134288 -64.885711 126.179617 -0.000006 -0.000003 -13.864100 3872.615845 7.181387 -49.382432 -3.155703 -0.764999 6.687799 39.109373 10.541007 3.475361 -3.592903 0.000001 0.000003 -226.882287 167.254558 293.223901 0.000003 -0.000005 -10.352395 -238.744345 -37.114585 -218.483927 0.000001 0.000003 -12.750308 34.201015 170.211114 -196.098979 2.460602 -0.518106 -2.735495 -921.801675 16.623501 90.356381 -0.000005 -0.000002 -17.005890 696.002232 193.746512 -62.590228 0.000000 0.000003 -19.194395 203.311044 124.383482 339.380926 -3.115499 -0.679597 -2.320297 -366.734822 -5.050399 -12.311248 -0.000004 0.000002 -17.680403 -861.538752 160.588703 -194.979088 0.000001 0.000008 -16.993797 1402.638250 22.935516 -367.460380
42.696899 22.552111 43.798595 2526.600847 2.859131 5.113958 -0.201595 0.334103 6.453197 -8.271833 2.884204 18.891216 -0.000000 0.000005 3.567997 -2.461148 -3.825101 -1.001852 -0.000003 -0.000001 8.296406 233.643887 -173.030753 159.706188 -0.000003 -0.000005 2.173903 -0.363868 0.074247 5.697077 1.927599 0.221404 6.049008 -17.826908 1.727669 2.686266 4.959710 -0.000000 0.000001 196.925542 182.704268 63.463188 -0.000005 -0.000004 -8.654203 111.648308 -64.757044 126.734720 -0.000001 0.000001 -13.864099 3873.264112 7.714372 -49.577877 -3.155705 -0.765001 6.687805 39.442816 11.097891 3.264604 -3.592906 0.000002 0.000009 -227.319282 167.402828 293.147976 0.000001 -0.000001 -10.352386 -238.954277 -37.354622 -218.564209 0.000008 -0.000003 -12.750303 35.514525 168.505780 -196.683944 2.460607 -0.518098 -2.735504 -922.147009 16.627124 90.683527 -0.000007 -0.000000 -17.005901 695.902566 193.845536 -62.651051 0.000000 0.000001 -19.194399 203.490678 124.555002 339.536599 -3.115496 -0.679591 -2.320295 -366.868202 -5.337802 -12.477343 0.000007 0.000000 -17.680401 -861.577875 160.562789 -195.005794 -0.000002 0.000001 -16.993793 1402.691143 22.943417 -367.480351
42.714905 22.536510 43.786297 2526.553200 2.943148 5.124805 -0.201594 0.334100 6.453195 -8.210550 2.736909 18.835184 0.000002 0.000005 3.567989 -2.452777 -3.761973 -1.003943 0.000007 -0.000001 8.296404 233.741805 -173.156101 159.660794 0.000001 -0.000005 2.173909 -0.295967 0.035735 5.748658 1.927604 0.221398 6.049006 -17.953610 1.659924 2.576219 4.959699 -0.000004 -0.000003 197.143602 182.651607 63.521278 0.000001 -0.000000 -8.654202 112.118880 -64.612367 127.276177 0.000002 -0.000004 -13.864096 3873.772933 8.159604 -49.752597 -3.155700 -0.765001 6.687807 39.387659 11.331950 3.792316 -3.592903 0.000006 0.000003 -227.159743 167.241458 292.707975 -0.000003 -0.000005 -10.352386 -238.878654 -37.458424 -218.654573 -0.000001 -0.000005 -12.750305 35.692390 168.702449 -197.013542 2.460607 -0.518099 -2.735505 -922.318474 16.479778 90.796252 -0.000001 0.000002 -17.005905 695.747384 193.930162 -62.753941 -0.000005 0.000000 -19.194403 203.661884 124.712984 339.639708 -3.115493 -0.679594 -2.320303 -366.826757 -5.410309 -12.436285 -0.000001 0.000001 -17.680407 -861.164020 160.671485 -195.109053 0.000006 0.000003 -16.993793 1402.420667 22.929100 -367.705392
42.713913 22.526609 43.773891 2526.773296 3.192083 5.259708 -0.201597 0.334100 6.453205 -8.416696 2.454244 18.597514 -0.000005 0.000004 3.567989 -2.423049 -3.684882 -0.995493 -0.000005 0.000002 8.296402 233.937148 -173.280096 159.614800 0.000004 0.000001 2.173903 -0.360047 0.030830 5.790606 1.927601 0.221405 6.049002 -18.149274 1.689166 2.510505 4.959704 -0.000001 -0.000002 197.395254 182.699596 63.617215 0.000005 -0.000002 -8.654190 112.678758 -64.490366 127.876577 0.000004 0.000002 -13.864096 3874.282629 8.476788 -49.898866 -3.155706 -0.764998 6.687800 39.354751 11.624015 4.250761 -3.592903 0.000005 0.000010 -226.888202 167.576437 292.304830 0.000005 0.000000 -10.352396 -238.097854 -37.836034 -218.766519 -0.000005 -0.000001 -12.750305 36.933978 169.309721 -198.516320 2.460607 -0.518102 -2.735499 -922.741618 16.403171 91.104301 -0.000003 0.000005 -17.005901 695.704108 193.988069 -63.022825 -0.000000 0.000003 -19.194403 203.055472 124.568457 338.885409 -3.115499 -0.679594 -2.320296 -367.085758 -5.619986 -12.638551 -0.000003 0.000004 -17.680399 -861.915013 160.555303 -194.952163 0.000011 0.000007 -16.993793 1402.904135 23.059888 -367.224083
42.715500 22.514904 43.758595 2527.130432 3.473665 5.349547 -0.201597 0.334106 6.453208 -8.765111 2.143670 18.405365 0.000000 0.000001 3.567991 -2.382672 -3.601891 -0.980813 -0.000001 0.000008 8.296398 233.981025 -173.359873 159.641424 -0.000003 0.000002 2.173898 -0.230264 -0.012910 5.743496 1.927604 0.221405 6.048993 -18.064739 1.606660 2.317410 4.959703 0.000007 0.000004 197.294864 182.563717 63.814977 -0.000002 0.000000 -8.654199 112.792419 -64.485387 127.962979 -0.000006 0.000000 -13.864096 3874.363936 8.528544 -49.913069 -3.155701 -0.764996 6.687799 39.443963 12.092058 4.666068 -3.592901 0.000000 0.000010 -226.792224 167.860928 291.758197 -0.000005 -0.000003 -10.352385 -237.665994 -38.079688 -219.010480 0.000001 -0.000010 -12.750300 37.837619 170.385694 -200.082633 2.460599 -0.518096 -2.735500 -923.218638 16.602810 91.357209 -0.000003 -0.000006 -17.005898 695.421338 194.305946 -63.298594 0.000004 0.000004 -19.194389 203.490542 124.561149 338.934067 -3.115494 -0.679592 -2.320299 -367.485597 -5.881324 -12.774697 0.000004 0.000000 -17.680389 -861.862885 160.511495 -194.996560 0.000006 0.000003 -16.993795 1402.851133 23.063052 -367.172774
42.728104 22.481405 43.751591 2527.158627 3.395105 5.315972 -0.201596 0.334097 6.453206 -8.771551 2.174545 18.404500 -0.000002 0.000003 3.568003 -2.374387 -3.537280 -0.975076 0.000006 -0.000001 8.296400 233.896932 -173.493908 159.748877 0.000002 0.000007 2.173898 0.022680 -0.064889 5.634723 1.927600 0.221405 6.048997 -17.943669 1.395014 2.000874 4.959700 -0.000004 0.000003 197.299768 182.336271 64.074688 -0.000006 -0.000001 -8.654202 113.112680 -64.387558 128.296224 0.000004 0.000001 -13.864098 3874.454422 8.598476 -49.874403 -3.155705 -0.765000 6.687794 39.332949 12.256097 5.344848 -3.592897 0.000000 0.000010 -226.572128 167.632090 291.204022 -0.000005 -0.000006 -10.352393 -237.959747 -37.940031 -219.439225 0.000002 -0.000004 -12.750302 37.848530 171.777291 -201.145670 2.460604 -0.518103 -2.735500 -923.171319 16.571164 91.295717 -0.000005 0.000002 -17.005898 695.182446 194.453819 -63.685012 0.000008 0.000007 -19.194397 202.968196 124.262328 338.041853 -3.115499 -0.679596 -2.320300 -367.488356 -5.724846 -12.690658 0.000005 0.000002 -17.680401 -861.078124 160.708559 -195.132234 0.000008 0.000003 -16.993795 1402.289090 22.985323 -367.534774
